[center]

12 Dates of Christmas 2011 HDTV XviD-NoGRP
 
http://www.imdb.com/title/tt1846442/

General
Complete name                    : 12.Dates.of.Christmas.2011.HDTV.XviD-NoGRP.avi
Format                         : AVI
Format/Info                      : Audio Video Interleave
File size                        : 702 MiB
Duration                       : 1h 25mn
Overall bit rate               : 1 144 Kbps

Video
ID                             : 0
Format                         : MPEG-4 Visual
Format profile                 : Advanced Simple@L5
Format settings, BVOP            : 2
Format settings, QPel            : No
Format settings, GMC           : No warppoints
Format settings, Matrix          : Default (H.263)
Codec ID                       : XVID
Codec ID/Hint                    : XviD
Duration                       : 1h 25mn
Bit rate                       : 1 002 Kbps
Width                            : 624 pixels
Height                         : 352 pixels
Display aspect ratio           : 16:9
Frame rate                     : 29.970 fps
Color space                      : YUV
Chroma subsampling             : 4:2:0
Bit depth                        : 8 bits
Scan type                        : Progressive
Compression mode               : Lossy
Bits/(Pixel*Frame)             : 0.152
Stream size                      : 615 MiB (88%)
Writing library                  : XviD 63

Audio
ID                             : 1
Format                         : MPEG Audio
Format version                 : Version 1
Format profile                 : Layer 3
Codec ID                       : 55
Codec ID/Hint                    : MP3
Duration                       : 1h 25mn
Bit rate mode                    : Constant
Bit rate                       : 128 Kbps
Channel(s)                     : 2 channels
Sampling rate                    : 48.0 KHz
Compression mode               : Lossy
Stream size                      : 78.5 MiB (11%)
Alignment                        : Split accross interleaves
Interleave, duration           : 24 ms (0.72 video frame) 

Cast

Amy Smart ... Kate Stanton
Mark-Paul Gosselaar 
Benjamin Ayres ... Jack Evans
Jennifer Kydd ... Nancy
Laura Miyata ... Miyoko

[img]http://img841.imageshack.us/img841/2499/ivabc.png[/img]
[img]http://img860.imageshack.us/img860/5161/eixzl.png[/img]
[img]http://img64.imageshack.us/img64/1720/za5rs.png[/img][/center]